<?xml version="1.0" encoding="UTF-8" standalone="no"?>
<svg
   width="12742"
   height="12742"
   viewBox="0 0 12742 12742"
   fill="none"
   version="1.1"
   id="svg7"
   xmlns="http://www.w3.org/2000/svg"
   xmlns:svg="http://www.w3.org/2000/svg">
  <defs
     id="defs7" />
  <g
     id="layer1"
     transform="translate(-1225.2034,-45.377904)">
    <path
       d="m 13452.003,6416.3779 c 0,-3234.08 -2621.7,-5855.82 -5855.7996,-5855.82 -3234.08,0 -5855.82,2621.74 -5855.82,5855.82 0,3234.1 2621.74,5855.8001 5855.82,5855.8001 3234.0996,0 5855.7996,-2621.7001 5855.7996,-5855.8001 z m 515.2,0 c 0,3518.6 -2852.4,6371.0001 -6370.9996,6371.0001 -3518.61,0 -6371,-2852.4001 -6371,-6371.0001 0,-3518.61 2852.39,-6370.999996 6371,-6370.999996 3518.5996,0 6370.9996,2852.389996 6370.9996,6370.999996 z"
       fill="black"
       id="path1"
       style="fill:#ffffff" />
    <path
       d="m 12472.803,6416.3779 c 0,-2693.26 -2183.3,-4876.58 -4876.5996,-4876.58 -2693.26,0 -4876.58,2183.32 -4876.58,4876.58 0,2693.3 2183.32,4876.6001 4876.58,4876.6001 2693.2996,0 4876.5996,-2183.3001 4876.5996,-4876.6001 z m 343.4,0 c 0,2882.9 -2337.1,5220.0001 -5219.9996,5220.0001 -2882.93,0 -5220,-2337.1001 -5220,-5220.0001 0,-2882.93 2337.07,-5220 5220,-5220 2882.8996,0 5219.9996,2337.07 5219.9996,5220 z"
       fill="black"
       id="path2"
       style="fill:#ffffff" />
    <path
       d="m 9069.5034,2847.3779 c 626.1,0 1133.6996,507.43 1133.6996,1133.37 v 4117.9 c 0,1251.83 -1015.0996,2266.7301 -2267.3996,2266.7301 h -680.2 c -1252.25,0 -2267.4,-1014.9001 -2267.4,-2266.7301 v -4117.9 c 0,-625.94 507.57,-1133.37 1133.7,-1133.37 z m -3023.18,4533.47 c -208.71,0 -377.9,169.14 -377.9,377.79 v 453.34 c 0,834.6 676.78,1511.2 1511.58,1511.2 h 793.6 c 834.8,0 1511.6,-676.6 1511.6,-1511.2 v -453.34 c 0,-208.65 -169.2,-377.79 -377.9,-377.79 z m 465.98,-3777.89 c -654.86,0 -1032.83,506.42 -1032.83,1353.32 v 318.95 c 0,883.54 367.52,1387.82 1032.83,1387.82 287.4,0 527.8,-96.99 698.5,-260.76 151.5,-140.08 245.5,-329.71 245.5,-499.95 0,-170.23 -95.7,-286.61 -236.8,-286.62 -88.8,0 -151.6,40.96 -243.9,159.49 -123.6,193.93 -259.5,284.44 -428.4,284.45 -317.02,0 -491.21,-286.62 -491.22,-816.75 v -254.31 c 0.01,-497.79 177.69,-784.39 491.22,-784.39 167.2,0.01 289.1,90.51 419.7,288.77 90.6,114.2 158.5,157.31 250.8,157.31 139.4,0 235.2,-114.23 235.2,-286.63 0,-133.6 -69.7,-301.7 -184.7,-439.62 -170.6,-204.72 -445.8,-321.08 -755.9,-321.08 z m 1710.4,53.86 c -273.4,0 -400.6,165.96 -400.6,515.07 v 2064.49 c 0,243.5 106.3,383.58 292.7,383.58 182.8,-0.01 283.9,-137.93 283.9,-383.58 v -683.16 h 341.3 l 313.6,756.43 c 94,228.4 174.1,305.99 325.6,305.99 167.2,0 285.7,-137.93 285.7,-334.03 0,-75.43 -15.7,-157.33 -47,-224.13 l -310.1,-678.8 c 257.8,-148.7 404.1,-439.64 404.1,-810.29 0,-564.6 -327.4,-911.56 -860.4,-911.57 z m 550.4,564.62 c 229.9,0 367.5,148.71 367.5,411.62 0,267.21 -139.3,415.9 -367.5,415.9 h -374.4 v -827.52 z"
       fill="black"
       id="path7"
       style="fill:#ffffff" />
  </g>
</svg>
